# xmcd CD database file
#
# Track frame offsets:
#	150
#	10440
#	23836
#	35845
#	47233
#	56879
#	67615
#	77836
#	90004
#	101366
#	108092
#	120521
#
# Disc length: 1760 seconds
#
# Revision: 2
# Processed by: cddbd v1.5.2PL0 Copyright (c) Steve Scherf et al.
# Submitted via: CDex 1.70beta2
#
DISCID=8a06de0c
DTITLE=Willie Nelson - Country Stars and Stripes
DYEAR=2001
DGENRE=Country
TTITLE0=Blame It On The Times ( 2001 ) - Willie Nelson
TTITLE1=EveryThing But You ( 2001 ) - Willie Nelson
TTITLE2=Happiness Lives Next Door ( 2001 ) - Willie Nelson
TTITLE3=I'm Gonna Lose A Lot Of Tear Drops ( 2001 ) - Willie Nelson
TTITLE4=Let's Pretend ( 2001 ) - Willie Nelson
TTITLE5=Touch Me ( 2001 ) - Willie Nelson
TTITLE6=Broken Promises ( 2001 ) - Willie Nelson
TTITLE7=I Can't Find The Time ( 2001 ) - Willie Nelson
TTITLE8=Is There SomeThing On Your Mind ( 2001 ) - Willie Nelson
TTITLE9=Both Sides Of The Candle ( 2001 ) - Willie Nelson
TTITLE10=Shelter Of Your Arms ( 2001 ) - Willie Nelson
TTITLE11=The Last Letter ( 2001 ) - Willie Nelson
EXTD=YEAR: 2001
EXTT0=
EXTT1=
EXTT2=
EXTT3=
EXTT4=
EXTT5=
EXTT6=
EXTT7=
EXTT8=
EXTT9=
EXTT10=
EXTT11=
PLAYORDER=
